<svg width="37" height="36" viewBox="0 0 37 36" fill="none" xmlns="http://www.w3.org/2000/svg">
<path d="M18.5 0.666016C16.1672 0.666016 13.8572 1.1255 11.7019 2.01824C9.54662 2.91099 7.58829 4.2195 5.93872 5.86907C2.60726 9.20052 0.735672 13.7189 0.735672 18.4303C0.735672 26.2822 5.83403 32.9438 12.8865 35.3064C13.7747 35.4486 14.0589 34.8979 14.0589 34.4182C14.0589 34.0097 14.0589 32.8905 14.0589 31.4161C9.1382 32.4819 8.0901 29.0356 8.0901 29.0356C7.27294 26.975 6.11826 26.4243 6.11826 26.4243C4.50171 25.3229 6.24261 25.3584 6.24261 25.3584C8.01904 25.4828 8.96055 27.1882 8.96055 27.1882C10.5061 29.8883 13.1174 29.0889 14.13 28.6626C14.2899 27.5079 14.7517 26.7263 15.2491 26.2822C11.3054 25.8381 7.16636 24.3103 7.16636 17.5421C7.16636 15.5703 7.8414 13.9893 8.99608 12.728C8.81844 12.2839 8.19669 10.4364 9.17373 8.03821C9.17373 8.03821 10.6659 7.55857 14.0589 9.85017C15.4623 9.45936 16.99 9.26395 18.5 9.26395C20.01 9.26395 21.5377 9.45936 22.9411 9.85017C26.3341 7.55857 27.8263 8.03821 27.8263 8.03821C28.8033 10.4364 28.1816 12.2839 28.0039 12.728C29.1586 13.9893 29.8336 15.5703 29.8336 17.5421C29.8336 24.3281 25.6768 25.8203 21.7153 26.2644C22.3549 26.8151 22.9411 27.8987 22.9411 29.5508V34.4182C22.9411 34.8979 23.2253 35.4663 24.1313 35.3064C31.1837 32.926 36.2643 26.2822 36.2643 18.4303C36.2643 16.0975 35.8048 13.7875 34.9121 11.6322C34.0194 9.47696 32.7108 7.51864 31.0613 5.86907C29.4117 4.2195 27.4534 2.91099 25.2981 2.01824C23.1428 1.1255 20.8328 0.666016 18.5 0.666016Z" fill="white"/>
</svg>
