<svg width="21" height="10" viewBox="0 0 21 10" fill="none" xmlns="http://www.w3.org/2000/svg">
<path d="M19.7942 0.678125C19.9316 0.2875 19.7942 0 19.1333 0H16.9465C16.3896 0 16.1334 0.246875 15.996 0.521875C15.996 0.521875 14.8822 2.80625 13.3079 4.2875C12.7993 4.71562 12.5654 4.85313 12.2869 4.85313C12.1495 4.85313 11.9379 4.71562 11.9379 4.325V0.678125C11.9379 0.209375 11.782 0 11.3216 0H7.88353C7.53452 0 7.32661 0.21875 7.32661 0.421875C7.32661 0.865625 8.11372 0.96875 8.1954 2.21875V4.93125C8.1954 5.525 8.06917 5.63437 7.79071 5.63437C7.04815 5.63437 5.24373 3.34063 4.17444 0.715625C3.9591 0.20625 3.74747 0 3.18683 0H0.999994C0.376243 0 0.250008 0.246875 0.250008 0.521875C0.250008 1.00937 0.992568 3.43125 3.70663 6.63125C5.51476 8.81563 8.06174 10 10.3785 10C11.7708 10 11.9416 9.7375 11.9416 9.28438C11.9416 7.19688 11.8154 7 12.5134 7C12.8364 7 13.3933 7.1375 14.6928 8.19063C16.1779 9.44063 16.423 10 17.2546 10H19.4415C20.0652 10 20.3808 9.7375 20.1989 9.21875C19.7831 8.12813 16.9725 5.88438 16.8462 5.73438C16.5232 5.38438 16.616 5.22813 16.8462 4.91563C16.8499 4.9125 19.5194 1.75 19.7942 0.678125Z" fill="white"/>
</svg>
