<svg width="28" height="18" viewBox="0 0 28 18" fill="none" xmlns="http://www.w3.org/2000/svg">
<path d="M27.1858 2.81639C26.8753 1.7078 25.9604 0.834703 24.7987 0.538406C22.6931 0 14.25 0 14.25 0C14.25 0 5.8069 0 3.70127 0.538406C2.53961 0.83475 1.62471 1.7078 1.31418 2.81639C0.749992 4.82578 0.749992 9.01819 0.749992 9.01819C0.749992 9.01819 0.749992 13.2106 1.31418 15.22C1.62471 16.3286 2.53961 17.1653 3.70127 17.4616C5.8069 18 14.25 18 14.25 18C14.25 18 22.6931 18 24.7987 17.4616C25.9604 17.1653 26.8753 16.3286 27.1858 15.22C27.75 13.2106 27.75 9.01819 27.75 9.01819C27.75 9.01819 27.75 4.82578 27.1858 2.81639ZM11.4886 12.8246V5.2118L18.5454 9.01828L11.4886 12.8246Z" fill="white"/>
</svg>
